# xmcd
#
# Track frame offsets:
# 150
# 3179
# 21196
# 37260
# 51555
# 66837
# 82049
# 99058
# 113719
# 130954
# 146882
# 162028
# 185388
#
# Disc length: 2556 seconds
#
# Revision: 0
# Processed by: cddbd v1.5.1PL2 Copyright (c) Steve Scherf et al.
# Submitted via: Audion 3.0.2 (http://www.panic.com/audion/)
#
DISCID=ae09fa0d
DTITLE=The Resolution - Thin Dark Line
DYEAR=1900
DGENRE=
TTITLE0=The Revolution
TTITLE1=Fire's Got Nothin' On Me
TTITLE2=The Awesomeness
TTITLE3=Go Ahead And Jump
TTITLE4=Powers of Ten
TTITLE5=Lights to the South
TTITLE6=The Art and Architecture of Mosaics
TTITLE7=All the Fact, None of the Flavour
TTITLE8=Thanks, Jane Goodall...
TTITLE9=Rites of Spring
TTITLE10=Tell Them I'm Married
TTITLE11=Luna
TTITLE12=The Resolution
EXTD=
EXTT0=
EXTT1=
EXTT2=
EXTT3=
EXTT4=
EXTT5=
EXTT6=
EXTT7=
EXTT8=
EXTT9=
EXTT10=
EXTT11=
EXTT12=
PLAYORDER=
